<svg width="1000" height="610" viewBox="0 0 1000 610" fill="none" xmlns="http://www.w3.org/2000/svg">
<path d="M955.738 45.0782C955.738 23.9881 973.443 0.0859227 1000 0.0859227C973.443 0.0859227 949.836 19.4531 949.836 45.0782C949.836 70.7032 973.443 90.0704 1000 90.0704C973.443 90.0704 955.738 66.1683 955.738 45.0782Z" fill="black"/>
<path d="M955.738 110.067C955.738 88.9768 973.443 65.0747 1000 65.0747C973.443 65.0747 949.836 84.4419 949.836 110.067C949.836 135.692 973.443 155.059 1000 155.059C973.443 155.059 955.738 131.157 955.738 110.067Z" fill="black"/>
<path d="M955.738 175.056C955.738 153.966 973.443 130.064 1000 130.064C973.443 130.064 949.836 149.431 949.836 175.056C949.836 200.681 973.443 220.048 1000 220.048C973.443 220.048 955.738 196.146 955.738 175.056Z" fill="black"/>
<path d="M955.738 240.045C955.738 218.954 973.443 195.052 1000 195.052C973.443 195.052 949.836 214.42 949.836 240.045C949.836 265.67 973.443 285.037 1000 285.037C973.443 285.037 955.738 261.135 955.738 240.045Z" fill="black"/>
<path d="M955.738 305.033C955.738 283.943 973.443 260.041 1000 260.041C973.443 260.041 949.836 279.408 949.836 305.033C949.836 330.658 973.443 350.026 1000 350.026C973.443 350.026 955.738 326.123 955.738 305.033Z" fill="black"/>
<path d="M955.738 370.022C955.738 348.932 973.443 325.03 1000 325.03C973.443 325.03 949.836 344.397 949.836 370.022C949.836 395.647 973.443 415.014 1000 415.014C973.443 415.014 955.738 391.112 955.738 370.022Z" fill="black"/>
<path d="M955.738 435.011C955.738 413.921 973.443 390.019 1000 390.019C973.443 390.019 949.836 409.386 949.836 435.011C949.836 460.636 973.443 480.003 1000 480.003C973.443 480.003 955.738 456.101 955.738 435.011Z" fill="black"/>
<path d="M955.738 500C955.738 478.91 973.443 455.008 1000 455.008C973.443 455.008 949.836 474.375 949.836 500C949.836 525.625 973.443 544.992 1000 544.992C973.443 544.992 955.738 521.09 955.738 500Z" fill="black"/>
<path d="M955.738 564.989C955.738 543.898 973.443 519.996 1000 519.996C973.443 519.996 949.836 539.364 949.836 564.989C949.836 590.614 973.443 609.981 1000 609.981C973.443 609.981 955.738 586.079 955.738 564.989Z" fill="black"/>
<path d="M44.2621 45.0782C44.2621 23.9881 26.5573 0.0859375 0 0.0859375C26.5573 0.0859375 50.1638 19.4531 50.1638 45.0782C50.1638 70.7032 26.5573 90.0704 0 90.0704C26.5573 90.0704 44.2621 66.1683 44.2621 45.0782Z" fill="black"/>
<path d="M44.2621 110.067C44.2621 88.9769 26.5573 65.0747 0 65.0747C26.5573 65.0747 50.1638 84.4419 50.1638 110.067C50.1638 135.692 26.5573 155.059 0 155.059C26.5573 155.059 44.2621 131.157 44.2621 110.067Z" fill="black"/>
<path d="M44.2621 175.056C44.2621 153.966 26.5573 130.064 0 130.064C26.5573 130.064 50.1638 149.431 50.1638 175.056C50.1638 200.681 26.5573 220.048 0 220.048C26.5573 220.048 44.2621 196.146 44.2621 175.056Z" fill="black"/>
<path d="M44.2621 240.045C44.2621 218.954 26.5573 195.052 0 195.052C26.5573 195.052 50.1638 214.42 50.1638 240.045C50.1638 265.67 26.5573 285.037 0 285.037C26.5573 285.037 44.2621 261.135 44.2621 240.045Z" fill="black"/>
<path d="M44.2621 305.033C44.2621 283.943 26.5573 260.041 0 260.041C26.5573 260.041 50.1638 279.408 50.1638 305.033C50.1638 330.658 26.5573 350.026 0 350.026C26.5573 350.026 44.2621 326.123 44.2621 305.033Z" fill="black"/>
<path d="M44.2621 370.022C44.2621 348.932 26.5573 325.03 0 325.03C26.5573 325.03 50.1638 344.397 50.1638 370.022C50.1638 395.647 26.5573 415.014 0 415.014C26.5573 415.014 44.2621 391.112 44.2621 370.022Z" fill="black"/>
<path d="M44.2621 435.011C44.2621 413.921 26.5573 390.019 0 390.019C26.5573 390.019 50.1638 409.386 50.1638 435.011C50.1638 460.636 26.5573 480.003 0 480.003C26.5573 480.003 44.2621 456.101 44.2621 435.011Z" fill="black"/>
<path d="M44.2621 500C44.2621 478.91 26.5573 455.008 0 455.008C26.5573 455.008 50.1638 474.375 50.1638 500C50.1638 525.625 26.5573 544.992 0 544.992C26.5573 544.992 44.2621 521.09 44.2621 500Z" fill="black"/>
<path d="M44.2621 564.989C44.2621 543.898 26.5573 519.996 0 519.996C26.5573 519.996 50.1638 539.364 50.1638 564.989C50.1638 590.614 26.5573 609.981 0 609.981C26.5573 609.981 44.2621 586.079 44.2621 564.989Z" fill="black"/>
<path d="M44.9922 565.633C23.9021 565.633 0 583.338 0 609.895C0 583.338 19.3672 559.731 44.9922 559.731C70.6173 559.731 89.9845 583.338 89.9845 609.895C89.9845 583.338 66.0824 565.633 44.9922 565.633Z" fill="black"/>
<path d="M954.835 565.633C933.745 565.633 909.843 583.338 909.843 609.895C909.843 583.338 929.21 559.731 954.835 559.731C980.46 559.731 999.828 583.338 999.828 609.895C999.828 583.338 975.926 565.633 954.835 565.633Z" fill="black"/>
<path d="M109.981 565.633C88.8909 565.633 64.9888 583.338 64.9888 609.895C64.9888 583.338 84.356 559.731 109.981 559.731C135.606 559.731 154.973 583.338 154.973 609.895C154.973 583.338 131.071 565.633 109.981 565.633Z" fill="black"/>
<path d="M174.97 565.633C153.88 565.633 129.978 583.338 129.978 609.895C129.978 583.338 149.345 559.731 174.97 559.731C200.595 559.731 219.962 583.338 219.962 609.895C219.962 583.338 196.06 565.633 174.97 565.633Z" fill="black"/>
<path d="M239.959 565.633C218.869 565.633 194.966 583.338 194.966 609.895C194.966 583.338 214.334 559.731 239.959 559.731C265.584 559.731 284.951 583.338 284.951 609.895C284.951 583.338 261.049 565.633 239.959 565.633Z" fill="black"/>
<path d="M304.947 565.633C283.857 565.633 259.955 583.338 259.955 609.895C259.955 583.338 279.322 559.731 304.947 559.731C330.572 559.731 349.94 583.338 349.94 609.895C349.94 583.338 326.038 565.633 304.947 565.633Z" fill="black"/>
<path d="M369.936 565.633C348.846 565.633 324.944 583.338 324.944 609.895C324.944 583.338 344.311 559.731 369.936 559.731C395.561 559.731 414.928 583.338 414.928 609.895C414.928 583.338 391.026 565.633 369.936 565.633Z" fill="black"/>
<path d="M434.925 565.633C413.835 565.633 389.933 583.338 389.933 609.895C389.933 583.338 409.3 559.731 434.925 559.731C460.55 559.731 479.917 583.338 479.917 609.895C479.917 583.338 456.015 565.633 434.925 565.633Z" fill="black"/>
<path d="M499.914 565.633C478.824 565.633 454.922 583.338 454.922 609.895C454.922 583.338 474.289 559.731 499.914 559.731C525.539 559.731 544.906 583.338 544.906 609.895C544.906 583.338 521.004 565.633 499.914 565.633Z" fill="black"/>
<path d="M564.903 565.633C543.813 565.633 519.91 583.338 519.91 609.895C519.91 583.338 539.278 559.731 564.903 559.731C590.528 559.731 609.895 583.338 609.895 609.895C609.895 583.338 585.993 565.633 564.903 565.633Z" fill="black"/>
<path d="M629.891 565.633C608.801 565.633 584.899 583.338 584.899 609.895C584.899 583.338 604.266 559.731 629.891 559.731C655.516 559.731 674.884 583.338 674.884 609.895C674.884 583.338 650.982 565.633 629.891 565.633Z" fill="black"/>
<path d="M694.88 565.633C673.79 565.633 649.888 583.338 649.888 609.895C649.888 583.338 669.255 559.731 694.88 559.731C720.505 559.731 739.872 583.338 739.872 609.895C739.872 583.338 715.97 565.633 694.88 565.633Z" fill="black"/>
<path d="M759.869 565.633C738.779 565.633 714.877 583.338 714.877 609.895C714.877 583.338 734.244 559.731 759.869 559.731C785.494 559.731 804.861 583.338 804.861 609.895C804.861 583.338 780.959 565.633 759.869 565.633Z" fill="black"/>
<path d="M824.858 565.633C803.768 565.633 779.866 583.338 779.866 609.895C779.866 583.338 799.233 559.731 824.858 559.731C850.483 559.731 869.85 583.338 869.85 609.895C869.85 583.338 845.948 565.633 824.858 565.633Z" fill="black"/>
<path d="M889.847 565.633C868.757 565.633 844.854 583.338 844.854 609.895C844.854 583.338 864.222 559.731 889.847 559.731C915.472 559.731 934.839 583.338 934.839 609.895C934.839 583.338 910.937 565.633 889.847 565.633Z" fill="black"/>
<path d="M44.9922 44.2621C23.9021 44.2621 0 26.5573 0 0C0 26.5573 19.3672 50.1638 44.9922 50.1638C70.6173 50.1638 89.9845 26.5573 89.9845 0C89.9845 26.5573 66.0824 44.2621 44.9922 44.2621Z" fill="black"/>
<path d="M954.835 44.2621C933.745 44.2621 909.843 26.5573 909.843 0C909.843 26.5573 929.21 50.1638 954.835 50.1638C980.46 50.1638 999.828 26.5573 999.828 0C999.828 26.5573 975.926 44.2621 954.835 44.2621Z" fill="black"/>
<path d="M109.981 44.2621C88.8909 44.2621 64.9888 26.5573 64.9888 0C64.9888 26.5573 84.356 50.1638 109.981 50.1638C135.606 50.1638 154.973 26.5573 154.973 0C154.973 26.5573 131.071 44.2621 109.981 44.2621Z" fill="black"/>
<path d="M174.97 44.2621C153.88 44.2621 129.978 26.5573 129.978 0C129.978 26.5573 149.345 50.1638 174.97 50.1638C200.595 50.1638 219.962 26.5573 219.962 0C219.962 26.5573 196.06 44.2621 174.97 44.2621Z" fill="black"/>
<path d="M239.959 44.2621C218.869 44.2621 194.966 26.5573 194.966 0C194.966 26.5573 214.334 50.1638 239.959 50.1638C265.584 50.1638 284.951 26.5573 284.951 0C284.951 26.5573 261.049 44.2621 239.959 44.2621Z" fill="black"/>
<path d="M304.947 44.2621C283.857 44.2621 259.955 26.5573 259.955 0C259.955 26.5573 279.322 50.1638 304.947 50.1638C330.572 50.1638 349.94 26.5573 349.94 0C349.94 26.5573 326.038 44.2621 304.947 44.2621Z" fill="black"/>
<path d="M369.936 44.2621C348.846 44.2621 324.944 26.5573 324.944 0C324.944 26.5573 344.311 50.1638 369.936 50.1638C395.561 50.1638 414.928 26.5573 414.928 0C414.928 26.5573 391.026 44.2621 369.936 44.2621Z" fill="black"/>
<path d="M434.925 44.2621C413.835 44.2621 389.933 26.5573 389.933 0C389.933 26.5573 409.3 50.1638 434.925 50.1638C460.55 50.1638 479.917 26.5573 479.917 0C479.917 26.5573 456.015 44.2621 434.925 44.2621Z" fill="black"/>
<path d="M499.914 44.2621C478.824 44.2621 454.922 26.5573 454.922 0C454.922 26.5573 474.289 50.1638 499.914 50.1638C525.539 50.1638 544.906 26.5573 544.906 0C544.906 26.5573 521.004 44.2621 499.914 44.2621Z" fill="black"/>
<path d="M564.903 44.2621C543.813 44.2621 519.91 26.5573 519.91 0C519.91 26.5573 539.278 50.1638 564.903 50.1638C590.528 50.1638 609.895 26.5573 609.895 0C609.895 26.5573 585.993 44.2621 564.903 44.2621Z" fill="black"/>
<path d="M629.891 44.2621C608.801 44.2621 584.899 26.5573 584.899 0C584.899 26.5573 604.266 50.1638 629.891 50.1638C655.516 50.1638 674.884 26.5573 674.884 0C674.884 26.5573 650.982 44.2621 629.891 44.2621Z" fill="black"/>
<path d="M694.88 44.2621C673.79 44.2621 649.888 26.5573 649.888 0C649.888 26.5573 669.255 50.1638 694.88 50.1638C720.505 50.1638 739.872 26.5573 739.872 0C739.872 26.5573 715.97 44.2621 694.88 44.2621Z" fill="black"/>
<path d="M759.869 44.2621C738.779 44.2621 714.877 26.5573 714.877 0C714.877 26.5573 734.244 50.1638 759.869 50.1638C785.494 50.1638 804.861 26.5573 804.861 0C804.861 26.5573 780.959 44.2621 759.869 44.2621Z" fill="black"/>
<path d="M824.858 44.2621C803.768 44.2621 779.866 26.5573 779.866 0C779.866 26.5573 799.233 50.1638 824.858 50.1638C850.483 50.1638 869.85 26.5573 869.85 0C869.85 26.5573 845.948 44.2621 824.858 44.2621Z" fill="black"/>
<path d="M889.847 44.2621C868.757 44.2621 844.854 26.5573 844.854 0C844.854 26.5573 864.222 50.1638 889.847 50.1638C915.472 50.1638 934.839 26.5573 934.839 0C934.839 26.5573 910.937 44.2621 889.847 44.2621Z" fill="black"/>
</svg>
