<svg width="732" height="139" viewBox="0 0 732 139" fill="none" xmlns="http://www.w3.org/2000/svg">
<path d="M55.6855 114C56.3203 110.924 56.6377 108.482 56.6377 106.676C56.6377 104.82 56.5889 103.429 56.4912 102.501C56.4424 101.573 56.3447 100.597 56.1982 99.5713C56.1006 98.4971 55.9541 97.3252 55.7588 96.0557C55.6123 94.7373 55.4658 93.2236 55.3193 91.5146C54.1963 79.8447 50.2168 70.25 43.3809 62.7305C40.3535 59.4102 37.082 56.8955 33.5664 55.1865C30.0508 53.4287 27.1455 52.5498 24.8506 52.5498C22.6045 52.5498 20.8711 52.6963 19.6504 52.9893C16.916 61.1924 15.5488 69.7617 15.5488 78.6973C15.5488 86.6074 15.9639 92.5156 16.7939 96.4219C18.1123 102.281 20.1387 108.165 22.873 114.073H0.973633C2.14551 111.144 2.73145 104.991 2.73145 95.6162C2.73145 86.1924 3.43945 77.4033 4.85547 69.249C6.27148 61.0459 8.10254 53.7461 10.3486 47.3496C12.6436 40.9531 15.1826 35.3623 17.9658 30.5771C20.7979 25.7432 23.6055 21.5439 26.3887 17.9795C29.2207 14.3662 31.8818 11.29 34.3721 8.75098C36.8623 6.16309 38.9375 3.89258 40.5977 1.93945H63.6689C61.5693 4.33203 60.5195 7.67676 60.5195 11.9736C60.5195 13.9268 60.8369 17.125 61.4717 21.5684L63.3027 34.8984C69.9922 80.9922 75.9736 107.359 81.2471 114H55.6855ZM22.6533 45.2256C24.5576 44.4932 26.5596 44.127 28.6592 44.127C30.7588 44.127 32.6387 44.2734 34.2988 44.5664C36.0078 44.8594 37.6924 45.3477 39.3525 46.0312C42.917 47.3984 45.8955 49.5713 48.2881 52.5498C45.8955 40.001 44.4307 32.335 43.8936 29.5518L41.3301 16.7344L37.1553 21.7148C31.2959 28.7461 26.4619 36.583 22.6533 45.2256Z" fill="black" fill-opacity="0.85"/>
<path d="M168.405 46.6172C168.405 76.5488 162.57 96.8613 150.9 107.555C156.418 121.324 162.79 131.773 170.017 138.902H144.016C141.623 135.289 139.108 127.257 136.472 114.806C134.274 115.245 131.955 115.465 129.514 115.465C116.525 115.465 106.735 109.361 100.144 97.1543C93.7959 85.3867 90.6221 68.541 90.6221 46.6172C90.6221 23.8145 97.6289 9.45898 111.643 3.55078C116.574 1.5 122.531 0.474609 129.514 0.474609C149.533 0.474609 161.765 9.36133 166.208 27.1348C167.673 32.8477 168.405 39.3418 168.405 46.6172ZM144.968 89.3174C147.8 78.8193 149.216 64.5859 149.216 46.6172C149.216 20.7383 142.648 7.79883 129.514 7.79883C116.379 7.79883 109.812 20.7383 109.812 46.6172C109.812 60.582 110.715 72.374 112.521 81.9932C113.693 77.7451 115.622 74.4492 118.308 72.1055C121.042 69.7617 123.85 68.5898 126.73 68.5898C129.66 68.5898 131.979 69.1025 133.688 70.1279C135.397 71.1533 136.936 72.5938 138.303 74.4492C140.842 77.8184 143.063 82.7744 144.968 89.3174ZM129.66 108.141C131.467 108.141 133.2 107.652 134.86 106.676L134.421 103.746C134.274 102.721 134.006 101.085 133.615 98.8389C133.273 96.5928 132.785 94.0781 132.15 91.2949C131.516 88.5117 130.808 86.168 130.026 84.2637C128.415 80.2598 126.486 78.2578 124.24 78.2578C122.092 78.2578 120.358 79.4785 119.04 81.9199C117.771 84.1172 117.136 86.583 117.136 89.3174C117.136 94.249 117.99 98.5215 119.699 102.135C122.531 106.139 125.852 108.141 129.66 108.141Z" fill="black" fill-opacity="0.85"/>
<path d="M243.918 76.4268L244.284 48.3018C244.284 28.624 243.552 16.0508 242.087 10.582C241.403 7.94531 240.573 6.0166 239.597 4.7959C238.669 3.5752 237.912 2.62305 237.326 1.93945H261.35L259.812 3.99023C257.614 7.21289 256.394 10.8506 256.149 14.9033C255.905 18.9561 255.71 23.0576 255.563 27.208C255.466 31.3584 255.368 35.4844 255.271 39.5859C255.173 46.4707 255.124 54.1611 255.124 62.6572V71.5928C255.124 87.3643 252.585 98.668 247.507 105.504C242.478 112.145 234.274 115.465 222.897 115.465C200.876 115.465 189.914 101.329 190.012 73.0576L190.085 18.1992C190.085 10.4844 188.718 5.06445 185.983 1.93945H213.742C210.861 5.40625 209.421 10.3379 209.421 16.7344C209.421 20.4453 209.396 24.2539 209.348 28.1602L209.055 51.5977C209.006 55.4551 208.981 59.4346 208.981 63.5361C208.981 78.2334 209.421 87.5596 210.3 91.5146C211.179 95.4209 212.253 98.4727 213.522 100.67C216.452 105.65 220.798 108.141 226.56 108.141C235.446 108.141 240.915 101.646 242.966 88.6582C243.601 84.8008 243.918 80.7236 243.918 76.4268Z" fill="black" fill-opacity="0.85"/>
<path d="M332.321 86.9004C333.64 88.707 334.299 91.3193 334.299 94.7373C334.299 98.1553 334.152 100.89 333.859 102.94C333.566 104.942 333.103 106.773 332.468 108.434C331.003 112.145 329.074 114 326.682 114H267.355C271.115 111.998 273.605 110.069 274.826 108.214C277.121 104.747 278.269 100.353 278.269 95.0303C278.22 81.9932 278.195 70.2012 278.195 59.6543V21.1289C278.195 13.8535 277.048 8.58008 274.753 5.30859C273.874 4.13672 272.824 3.01367 271.604 1.93945H326.682C330.002 3.11133 332.272 7.21289 333.493 14.2441C333.835 16.1973 334.006 18.1016 334.006 19.957C334.006 23.7656 333.444 26.793 332.321 29.0391L328.366 21.1289C325.729 15.9531 321.945 12.4863 317.014 10.7285C314.279 9.75195 311.203 9.26367 307.785 9.26367C304.367 9.26367 301.926 9.38574 300.461 9.62988C298.996 9.8252 297.873 10.3379 297.092 11.168C295.822 12.584 295.188 15.2939 295.188 19.2979C295.188 23.2529 295.285 26.0117 295.48 27.5742C295.676 29.0879 296.14 30.333 296.872 31.3096C298.386 33.2139 301.584 34.166 306.467 34.166H329.465C328.342 36.998 327.194 39 326.022 40.1719C323.679 42.5156 320.505 43.6875 316.501 43.6875C314.938 43.6875 313.449 43.5166 312.033 43.1748C309.396 42.54 307.077 42.2227 305.075 42.2227C303.073 42.2227 301.413 42.418 300.095 42.8086C298.825 43.1504 297.824 43.7119 297.092 44.4932C295.822 45.8604 295.188 48.3262 295.188 51.8906V86.8271C295.188 96.0068 295.7 101.451 296.726 103.16C297.751 104.869 298.996 105.895 300.461 106.236C301.926 106.529 304.367 106.676 307.785 106.676C311.203 106.676 314.304 106.188 317.087 105.211C319.87 104.234 322.189 102.867 324.045 101.109C325.949 99.3516 327.512 97.2764 328.732 94.8838C329.953 92.4424 331.149 89.7812 332.321 86.9004Z" fill="black" fill-opacity="0.85"/>
<path d="M404.611 86.9004C405.93 88.8047 406.589 91.0996 406.589 93.7852C406.589 96.4707 406.394 98.79 406.003 100.743C405.661 102.696 405.173 104.552 404.538 106.31C403.073 110.167 401.218 112.73 398.972 114H340.085C343.942 111.607 346.457 109.532 347.629 107.774C349.875 104.454 350.998 100.157 350.998 94.8838C350.949 81.8955 350.925 70.1523 350.925 59.6543V21.2754C350.925 14.1953 349.753 8.99512 347.409 5.6748C346.579 4.4541 345.554 3.20898 344.333 1.93945H374.436C371.555 6.08984 369.919 10.3623 369.528 14.7568C369.431 16.2217 369.382 17.833 369.382 19.5908V86.6807C369.382 95.8115 369.87 101.28 370.847 103.087C371.823 104.845 372.995 105.895 374.362 106.236C375.729 106.529 377.805 106.676 380.588 106.676C383.371 106.676 386.008 106.188 388.498 105.211C390.988 104.234 393.21 102.867 395.163 101.109C398.483 98.082 401.633 93.3457 404.611 86.9004Z" fill="black" fill-opacity="0.85"/>
<path d="M464.23 114C464.865 110.924 465.183 108.482 465.183 106.676C465.183 104.82 465.134 103.429 465.036 102.501C464.987 101.573 464.89 100.597 464.743 99.5713C464.646 98.4971 464.499 97.3252 464.304 96.0557C464.157 94.7373 464.011 93.2236 463.864 91.5146C462.741 79.8447 458.762 70.25 451.926 62.7305C448.898 59.4102 445.627 56.8955 442.111 55.1865C438.596 53.4287 435.69 52.5498 433.396 52.5498C431.149 52.5498 429.416 52.6963 428.195 52.9893C425.461 61.1924 424.094 69.7617 424.094 78.6973C424.094 86.6074 424.509 92.5156 425.339 96.4219C426.657 102.281 428.684 108.165 431.418 114.073H409.519C410.69 111.144 411.276 104.991 411.276 95.6162C411.276 86.1924 411.984 77.4033 413.4 69.249C414.816 61.0459 416.647 53.7461 418.894 47.3496C421.188 40.9531 423.728 35.3623 426.511 30.5771C429.343 25.7432 432.15 21.5439 434.934 17.9795C437.766 14.3662 440.427 11.29 442.917 8.75098C445.407 6.16309 447.482 3.89258 449.143 1.93945H472.214C470.114 4.33203 469.064 7.67676 469.064 11.9736C469.064 13.9268 469.382 17.125 470.017 21.5684L471.848 34.8984C478.537 80.9922 484.519 107.359 489.792 114H464.23ZM431.198 45.2256C433.103 44.4932 435.104 44.127 437.204 44.127C439.304 44.127 441.184 44.2734 442.844 44.5664C444.553 44.8594 446.237 45.3477 447.897 46.0312C451.462 47.3984 454.44 49.5713 456.833 52.5498C454.44 40.001 452.976 32.335 452.438 29.5518L449.875 16.7344L445.7 21.7148C439.841 28.7461 435.007 36.583 431.198 45.2256Z" fill="black" fill-opacity="0.85"/>
<path d="M529.416 44.4199C523.752 44.4199 520.92 47.7646 520.92 54.4541C520.92 82.1885 521.384 98.5215 522.312 103.453C522.849 106.432 523.532 108.653 524.362 110.118L526.56 114H500.559C502.121 110.289 503.024 107.188 503.269 104.698C503.562 102.208 503.806 99.5469 504.001 96.7148C504.392 90.9531 504.587 83.2139 504.587 73.4971C504.587 61.7295 504.392 50.9873 504.001 41.2705L503.195 21.1289C503 16.0508 502.561 12.5107 501.877 10.5088C500.803 7.33496 499.045 4.47852 496.604 1.93945H535.349C547.165 1.93945 555.71 3.11133 560.983 5.45508C566.55 7.89648 569.333 12.0713 569.333 17.9795C569.333 23.1553 567.404 28.0137 563.547 32.5547C559.934 36.7539 555.197 40.0986 549.338 42.5889C550.07 61.3389 555.954 79.332 566.989 96.5684C571.726 104.039 576.56 109.85 581.491 114H554.025C549.24 107.457 544.821 94.2002 540.769 74.2295C539.401 67.2959 538.498 61.5342 538.059 56.9443C537.668 52.3545 537.326 49.5957 537.033 48.668C536.789 47.6914 536.374 46.9102 535.788 46.3242C534.616 45.0547 532.492 44.4199 529.416 44.4199ZM546.262 31.3828C547.629 29.918 548.581 28.3555 549.118 26.6953C549.704 25.0352 549.997 23.4482 549.997 21.9346C549.997 20.3721 549.777 18.834 549.338 17.3203C548.947 15.7578 548.142 14.3906 546.921 13.2188C544.235 10.582 539.548 9.26367 532.858 9.26367C530.368 9.26367 528.342 9.36133 526.779 9.55664C525.266 9.75195 524.069 10.2891 523.19 11.168C521.677 12.6328 520.92 16.3682 520.92 22.374C520.92 27.6475 521.481 31.0166 522.604 32.4814C524.606 35.0693 527.634 36.3633 531.687 36.3633C535.739 36.3633 538.84 35.8994 540.988 34.9717C543.186 33.9951 544.943 32.7988 546.262 31.3828Z" fill="black" fill-opacity="0.85"/>
<path d="M615.842 44.4199C610.178 44.4199 607.346 47.7646 607.346 54.4541C607.346 82.1885 607.81 98.5215 608.737 103.453C609.274 106.432 609.958 108.653 610.788 110.118L612.985 114H586.984C588.547 110.289 589.45 107.188 589.694 104.698C589.987 102.208 590.231 99.5469 590.427 96.7148C590.817 90.9531 591.013 83.2139 591.013 73.4971C591.013 61.7295 590.817 50.9873 590.427 41.2705L589.621 21.1289C589.426 16.0508 588.986 12.5107 588.303 10.5088C587.229 7.33496 585.471 4.47852 583.029 1.93945H621.774C633.591 1.93945 642.136 3.11133 647.409 5.45508C652.976 7.89648 655.759 12.0713 655.759 17.9795C655.759 23.1553 653.83 28.0137 649.973 32.5547C646.359 36.7539 641.623 40.0986 635.764 42.5889C636.496 61.3389 642.38 79.332 653.415 96.5684C658.151 104.039 662.985 109.85 667.917 114H640.451C635.666 107.457 631.247 94.2002 627.194 74.2295C625.827 67.2959 624.924 61.5342 624.484 56.9443C624.094 52.3545 623.752 49.5957 623.459 48.668C623.215 47.6914 622.8 46.9102 622.214 46.3242C621.042 45.0547 618.918 44.4199 615.842 44.4199ZM632.688 31.3828C634.055 29.918 635.007 28.3555 635.544 26.6953C636.13 25.0352 636.423 23.4482 636.423 21.9346C636.423 20.3721 636.203 18.834 635.764 17.3203C635.373 15.7578 634.567 14.3906 633.347 13.2188C630.661 10.582 625.974 9.26367 619.284 9.26367C616.794 9.26367 614.768 9.36133 613.205 9.55664C611.691 9.75195 610.495 10.2891 609.616 11.168C608.103 12.6328 607.346 16.3682 607.346 22.374C607.346 27.6475 607.907 31.0166 609.03 32.4814C611.032 35.0693 614.06 36.3633 618.112 36.3633C622.165 36.3633 625.266 35.8994 627.414 34.9717C629.611 33.9951 631.369 32.7988 632.688 31.3828Z" fill="black" fill-opacity="0.85"/>
<path d="M729.294 86.9004C730.612 88.707 731.271 91.3193 731.271 94.7373C731.271 98.1553 731.125 100.89 730.832 102.94C730.539 104.942 730.075 106.773 729.44 108.434C727.976 112.145 726.047 114 723.654 114H664.328C668.088 111.998 670.578 110.069 671.799 108.214C674.094 104.747 675.241 100.353 675.241 95.0303C675.192 81.9932 675.168 70.2012 675.168 59.6543V21.1289C675.168 13.8535 674.021 8.58008 671.726 5.30859C670.847 4.13672 669.797 3.01367 668.576 1.93945H723.654C726.975 3.11133 729.245 7.21289 730.466 14.2441C730.808 16.1973 730.979 18.1016 730.979 19.957C730.979 23.7656 730.417 26.793 729.294 29.0391L725.339 21.1289C722.702 15.9531 718.918 12.4863 713.986 10.7285C711.252 9.75195 708.176 9.26367 704.758 9.26367C701.34 9.26367 698.898 9.38574 697.434 9.62988C695.969 9.8252 694.846 10.3379 694.064 11.168C692.795 12.584 692.16 15.2939 692.16 19.2979C692.16 23.2529 692.258 26.0117 692.453 27.5742C692.648 29.0879 693.112 30.333 693.845 31.3096C695.358 33.2139 698.557 34.166 703.439 34.166H726.438C725.314 36.998 724.167 39 722.995 40.1719C720.651 42.5156 717.478 43.6875 713.474 43.6875C711.911 43.6875 710.422 43.5166 709.006 43.1748C706.369 42.54 704.05 42.2227 702.048 42.2227C700.046 42.2227 698.386 42.418 697.067 42.8086C695.798 43.1504 694.797 43.7119 694.064 44.4932C692.795 45.8604 692.16 48.3262 692.16 51.8906V86.8271C692.16 96.0068 692.673 101.451 693.698 103.16C694.724 104.869 695.969 105.895 697.434 106.236C698.898 106.529 701.34 106.676 704.758 106.676C708.176 106.676 711.276 106.188 714.06 105.211C716.843 104.234 719.162 102.867 721.018 101.109C722.922 99.3516 724.484 97.2764 725.705 94.8838C726.926 92.4424 728.122 89.7812 729.294 86.9004Z" fill="black" fill-opacity="0.85"/>
</svg>
