<svg width="404" height="404" viewBox="0 0 404 404" fill="none" xmlns="http://www.w3.org/2000/svg">
<path d="M310 202C310 261.647 261.647 310 202 310C142.353 310 94 261.647 94 202C94 142.353 142.353 94 202 94C261.647 94 310 142.353 310 202ZM97.6445 202C97.6445 259.634 144.366 306.356 202 306.356C259.634 306.356 306.356 259.634 306.356 202C306.356 144.366 259.634 97.6445 202 97.6445C144.366 97.6445 97.6445 144.366 97.6445 202Z" fill="black" fill-opacity="0.3"/>
<path d="M2 202C109.082 278.395 272.879 117.06 202 2C131.121 117.06 294.918 278.395 402 202C294.918 125.605 131.121 286.94 202 402C272.879 286.94 109.082 125.605 2 202ZM402 202C254.918 258.632 149.929 157.1 202 2C254.071 157.1 149.082 258.632 2 202C149.082 145.368 254.071 246.9 202 402C149.929 246.9 254.918 145.368 402 202Z" fill="black" fill-opacity="0.3"/>
<path d="M1.70961 201.593L1.13908 202L1.70961 202.407C30.5171 222.959 63.384 226.38 94.6985 218.182C101.841 265.947 140.118 303.535 188.218 309.633C180.603 340.365 183.433 372.812 201.574 402.262L202 402.953L202.426 402.262C220.567 372.812 223.397 340.365 215.782 309.633C263.882 303.535 302.159 265.947 309.301 218.182C340.616 226.38 373.483 222.959 402.29 202.407L402.861 202L402.29 201.593C373.483 181.041 340.616 177.62 309.301 185.818C302.159 138.053 263.882 100.465 215.782 94.3671C223.397 63.6354 220.567 31.1878 202.426 1.73776L202 1.04669L201.574 1.73776C183.433 31.1878 180.603 63.6354 188.218 94.3671C140.118 100.465 101.841 138.053 94.6985 185.818C63.384 177.62 30.5171 181.041 1.70961 201.593ZM202 400.417C191.096 367.396 187.342 336.854 189.605 309.8C193.673 310.262 197.809 310.5 202 310.5C206.191 310.5 210.327 310.262 214.395 309.8C216.658 336.854 212.904 367.396 202 400.417ZM400.6 202C367.636 214.516 336.837 219.055 309.496 216.823C310.158 211.976 310.5 207.028 310.5 202C310.5 196.972 310.158 192.024 309.496 187.177C336.837 184.945 367.636 189.484 400.6 202ZM202 3.58267C212.904 36.6039 216.658 67.1461 214.395 94.2003C210.327 93.7377 206.191 93.5 202 93.5C197.809 93.5 193.673 93.7377 189.605 94.2003C187.342 67.1461 191.096 36.6039 202 3.58267ZM3.39999 202C36.3638 189.484 67.1631 184.945 94.5041 187.177C93.842 192.024 93.5 196.972 93.5 202C93.5 207.028 93.842 211.976 94.5041 216.823C67.1631 219.055 36.3638 214.516 3.39999 202ZM189.061 305.057C142.861 299.316 106.076 263.23 99.2735 217.367C113.68 215.761 127.093 212.25 139.313 207.01C149.673 213.753 159.454 221.692 168.383 230.559C179.714 241.814 189.654 254.55 197.644 268.217C193.424 279.562 190.519 291.883 189.061 305.057ZM304.727 217.367C297.924 263.23 261.139 299.316 214.939 305.057C213.481 291.883 210.576 279.562 206.356 268.217C214.346 254.55 224.286 241.814 235.617 230.559C244.546 221.692 254.327 213.753 264.687 207.01C276.907 212.25 290.32 215.761 304.727 217.367ZM214.939 98.9426C261.139 104.684 297.924 140.77 304.727 186.633C290.32 188.239 276.907 191.75 264.687 196.99C254.327 190.247 244.546 182.308 235.617 173.441C224.286 162.186 214.346 149.45 206.356 135.783C210.576 124.438 213.481 112.117 214.939 98.9426ZM99.2735 186.633C106.076 140.77 142.861 104.684 189.061 98.9426C190.519 112.117 193.424 124.438 197.644 135.783C189.654 149.45 179.714 162.186 168.383 173.441C159.454 182.308 149.673 190.247 139.313 196.99C127.093 191.75 113.68 188.239 99.2735 186.633ZM202 305.856C198.087 305.856 194.225 305.639 190.425 305.218C193.248 295.264 197.162 285.516 202 276.139C206.838 285.516 210.752 295.264 213.575 305.218C209.775 305.639 205.913 305.856 202 305.856ZM305.856 202C305.856 206.72 305.541 211.366 304.931 215.918C293.939 212.624 283.171 207.904 272.877 202C283.171 196.096 293.939 191.376 304.931 188.082C305.541 192.634 305.856 197.28 305.856 202ZM202 98.1445C205.913 98.1445 209.775 98.3608 213.575 98.7823C210.752 108.736 206.838 118.484 202 127.861C197.162 118.484 193.248 108.736 190.425 98.7823C194.225 98.3608 198.087 98.1445 202 98.1445ZM98.1445 202C98.1445 197.28 98.4593 192.634 99.069 188.082C110.061 191.376 120.829 196.096 131.123 202C120.829 207.904 110.061 212.624 99.069 215.918C98.4593 211.366 98.1445 206.72 98.1445 202ZM177.034 222.245C168.973 214.276 159.808 207.487 149.673 202C159.808 196.513 168.973 189.724 177.034 181.755C187.219 171.685 195.63 159.741 202 146.17C208.37 159.741 216.781 171.685 226.966 181.755C235.027 189.724 244.192 196.513 254.327 202C244.192 207.487 235.027 214.276 226.966 222.245C216.781 232.315 208.37 244.259 202 257.83C195.63 244.259 187.219 232.315 177.034 222.245Z" stroke="black" stroke-opacity="0.1"/>
</svg>
